<svg width="32" height="32" viewBox="0 0 32 32" fill="none" xmlns="http://www.w3.org/2000/svg">
<path d="M16.0003 11.666C14.8511 11.666 13.7489 12.1226 12.9362 12.9352C12.1235 13.7479 11.667 14.8501 11.667 15.9993C11.667 17.1486 12.1235 18.2508 12.9362 19.0635C13.7489 19.8761 14.8511 20.3327 16.0003 20.3327C17.1496 20.3327 18.2518 19.8761 19.0645 19.0635C19.8771 18.2508 20.3337 17.1486 20.3337 15.9993C20.3337 14.8501 19.8771 13.7479 19.0645 12.9352C18.2518 12.1226 17.1496 11.666 16.0003 11.666Z" fill="#444444"/>
<path fill-rule="evenodd" clip-rule="evenodd" d="M9.02708 4.10991C13.6618 3.59618 18.339 3.59618 22.9737 4.10991C25.5057 4.39258 27.5471 6.38591 27.8444 8.92724C28.394 13.6268 28.394 18.3744 27.8444 23.0739C27.5471 25.6152 25.5057 27.6086 22.9751 27.8926C18.3399 28.4065 13.6622 28.4065 9.02708 27.8926C6.49508 27.6086 4.45375 25.6152 4.15641 23.0752C3.60672 18.3753 3.60672 13.6272 4.15641 8.92724C4.45375 6.38591 6.49508 4.39258 9.02708 4.10991ZM22.6671 8.00058C22.3135 8.00058 21.9743 8.14105 21.7243 8.3911C21.4742 8.64115 21.3337 8.98029 21.3337 9.33391C21.3337 9.68753 21.4742 10.0267 21.7243 10.2767C21.9743 10.5268 22.3135 10.6672 22.6671 10.6672C23.0207 10.6672 23.3598 10.5268 23.6099 10.2767C23.8599 10.0267 24.0004 9.68753 24.0004 9.33391C24.0004 8.98029 23.8599 8.64115 23.6099 8.3911C23.3598 8.14105 23.0207 8.00058 22.6671 8.00058ZM9.66708 16.0006C9.66708 14.3209 10.3343 12.71 11.5221 11.5222C12.7098 10.3345 14.3207 9.66724 16.0004 9.66724C17.6801 9.66724 19.291 10.3345 20.4788 11.5222C21.6665 12.71 22.3337 14.3209 22.3337 16.0006C22.3337 17.6803 21.6665 19.2912 20.4788 20.4789C19.291 21.6666 17.6801 22.3339 16.0004 22.3339C14.3207 22.3339 12.7098 21.6666 11.5221 20.4789C10.3343 19.2912 9.66708 17.6803 9.66708 16.0006Z" fill="#444444"/>
</svg>
