<svg width="18" height="20" viewBox="0 0 18 20" fill="none" xmlns="http://www.w3.org/2000/svg">
<path d="M2.84341 2.56789C4.47635 0.934953 6.69109 0.0175781 9.00041 0.0175781C11.3097 0.0175781 13.5245 0.934953 15.1574 2.56789C16.7903 4.20083 17.7077 6.41557 17.7077 8.72489C17.7077 11.0342 16.7903 13.249 15.1574 14.8819L13.9704 16.0559C13.0954 16.9139 11.9604 18.0179 10.5644 19.3679C10.1448 19.7736 9.58404 20.0004 9.00041 20.0004C8.41678 20.0004 7.85598 19.7736 7.43641 19.3679L3.94541 15.9719C3.50541 15.5409 3.13941 15.1779 2.84341 14.8819C2.03483 14.0734 1.39342 13.1135 0.95581 12.0571C0.518203 11.0006 0.292969 9.86836 0.292969 8.72489C0.292969 7.58142 0.518203 6.44914 0.95581 5.39272C1.39342 4.3363 2.03483 3.37642 2.84341 2.56789ZM14.0964 3.62789C13.4271 2.95861 12.6324 2.42772 11.7579 2.06553C10.8834 1.70334 9.94611 1.51695 8.99956 1.517C8.053 1.51704 7.11573 1.70353 6.24124 2.0658C5.36676 2.42807 4.57219 2.95904 3.90291 3.62839C3.23363 4.29774 2.70274 5.09236 2.34055 5.96688C1.97836 6.8414 1.79197 7.77869 1.79202 8.72524C1.79206 9.6718 1.97855 10.6091 2.34082 11.4836C2.70309 12.358 3.23406 13.1526 3.90341 13.8219L5.39141 15.2899C6.20941 16.0909 7.23941 17.0909 8.47941 18.2899C8.61924 18.4249 8.80603 18.5004 9.00041 18.5004C9.19479 18.5004 9.38159 18.4249 9.52141 18.2899L12.9164 14.9899C13.3864 14.5289 13.7794 14.1399 14.0964 13.8219C15.4479 12.4703 16.2072 10.6372 16.2072 8.72589C16.2072 6.81453 15.4479 4.98146 14.0964 3.62989V3.62789ZM9.00041 5.99889C9.39464 5.99889 9.78501 6.07654 10.1492 6.2274C10.5134 6.37827 10.8444 6.5994 11.1231 6.87816C11.4019 7.15692 11.623 7.48786 11.7739 7.85208C11.9248 8.2163 12.0024 8.60666 12.0024 9.00089C12.0024 9.39512 11.9248 9.78549 11.7739 10.1497C11.623 10.5139 11.4019 10.8449 11.1231 11.1236C10.8444 11.4024 10.5134 11.6235 10.1492 11.7744C9.78501 11.9252 9.39464 12.0029 9.00041 12.0029C8.21385 11.9885 7.46436 11.666 6.91318 11.1047C6.36201 10.5433 6.0532 9.78808 6.0532 9.00139C6.0532 8.2147 6.36201 7.45944 6.91318 6.89812C7.46436 6.33679 8.21385 6.01425 9.00041 5.99989V5.99889ZM9.00041 7.49889C8.60206 7.49889 8.22002 7.65714 7.93834 7.93882C7.65666 8.2205 7.49841 8.60254 7.49841 9.00089C7.49841 9.39925 7.65666 9.78129 7.93834 10.063C8.22002 10.3446 8.60206 10.5029 9.00041 10.5029C9.39192 10.4928 9.76401 10.3302 10.0373 10.0497C10.3107 9.76919 10.4637 9.39304 10.4637 9.00139C10.4637 8.60975 10.3107 8.23359 10.0373 7.95311C9.76401 7.67262 9.39192 7.51 9.00041 7.49989V7.49889Z" fill="#444444"/>
</svg>
