<svg width="18" height="20" viewBox="0 0 18 20" fill="none" xmlns="http://www.w3.org/2000/svg">
<path d="M15.157 14.8811L13.97 16.0551C13.095 16.9131 11.96 18.0171 10.564 19.3671C10.1444 19.7728 9.5836 19.9996 8.99997 19.9996C8.41634 19.9996 7.85555 19.7728 7.43597 19.3671L3.94497 15.9711C3.50497 15.5401 3.13897 15.1771 2.84297 14.8811C1.62534 13.6634 0.79614 12.112 0.460229 10.423C0.124319 8.73402 0.296783 6.98337 0.955813 5.39241C1.61484 3.80145 2.73084 2.44164 4.16269 1.48493C5.59453 0.528219 7.27792 0.0175781 8.99997 0.0175781C10.722 0.0175781 12.4054 0.528219 13.8373 1.48493C15.2691 2.44164 16.3851 3.80145 17.0441 5.39241C17.7032 6.98337 17.8756 8.73402 17.5397 10.423C17.2038 12.112 16.3746 13.6634 15.157 14.8811ZM11.5 8.99914C11.5 8.33609 11.2366 7.70021 10.7677 7.23137C10.2989 6.76253 9.66301 6.49914 8.99997 6.49914C8.33693 6.49914 7.70105 6.76253 7.23221 7.23137C6.76336 7.70021 6.49997 8.33609 6.49997 8.99914C6.49997 9.66218 6.76336 10.2981 7.23221 10.7669C7.70105 11.2357 8.33693 11.4991 8.99997 11.4991C9.66301 11.4991 10.2989 11.2357 10.7677 10.7669C11.2366 10.2981 11.5 9.66218 11.5 8.99914Z" fill="white"/>
</svg>
